<?xml version="1.0" encoding="utf-8"?>
<svg version="1.1" xmlns:xlink="http://www.w3.org/1999/xlink" width="6px" height="12px" xmlns="http://www.w3.org/2000/svg">
  <g transform="matrix(1 0 0 1 -426 -607 )">
    <path d="M 0.121616056607143 0.184485716188524  C 0.201378503357143 0.0995876975409834  0.306572454642857 0.0571386880327867  0.410610428357143 0.0571386880327869  C 0.514648402178571 0.0571386880327869  0.619842353571428 0.0995876974180328  0.699604800214286 0.184485716188525  L 5.87838394339286 5.69224468204918  C 6.03790883657143 5.86204071946721  6.03790883657143 6.13795928053279  5.87838394339286 6.30775531795082  L 0.699604800214286 11.8155142838115  C 0.540079907035714 11.9853103212295  0.281140949785714 11.9853103212295  0.121616056607143 11.8155142838115  C -0.0379088365714284 11.6457182463934  -0.0379088365714284 11.3697996853279  0.121616056607143 11.2000036479098  L 5.01140082792857 6  L 0.121616056607143 0.799996352090164  C -0.0379088365714281 0.630200314672131  -0.0379088365714281 0.354281753606557  0.121616056607143 0.184485716188524  Z " fill-rule="nonzero" fill="#aaaaaa" stroke="none" transform="matrix(1 0 0 1 426 607 )" />
  </g>
</svg>