<?xml version="1.0" encoding="utf-8"?>
<svg version="1.1" xmlns:xlink="http://www.w3.org/1999/xlink" width="80px" height="72px" xmlns="http://www.w3.org/2000/svg">
  <g transform="matrix(1 0 0 1 -1536 -698 )">
    <path d="M 7.74979591836735 71  L 7.74979591836735 71.3481136363636  L 7.65724489795918 71.3460681818182  C 7.12224489795918 71.3286818181818  4.34132653061224 71.1497045454546  2.48867346938776 69.4090227272727  C 0.589081632653062 67.6234431818182  0.362346938775512 65.0560909090909  0.33622448979592 64.5591477272727  C 0.333695264338177 64.5124184628821  0.332470295784281 64.4656274481427  1 64.4188295454545  L 1 50.4361022727273  C 0.304897959183675 49.8601022727273  0.267755102040817 47.9142613636363  0.918265306122451 45.7532386363636  C 1.5415306122449 43.6811931818182  2.3115306122449 42.3208636363636  2.53204081632653 41.9538068181818  L 9.53602040816327 29.534625  C 9.57102040816327 29.4723409090909  9.6080612244898 29.4121022727273  9.64775510204082 29.3535  C 9.86612244897959 29.0287840909091  11.0401020408163 27.3573409090909  12.6497959183673 26.3535340909091  C 14.3435714285714 25.2963409090909  16.3936734693878 25.214625  16.9819387755102 26  L 61.2239795918367 26  C 61.2809183673469 25.214625  61.3372448979592 25.2162613636363  61.3954081632653 25.2199431818182  C 61.8352040816326 25.2481704545454  64.1188775510204 25.4413636363636  65.8862244897959 26.4546818181818  C 67.5737755102041 27.4234090909091  68.9321428571428 29.1162272727273  69.1871428571429 29.4451363636364  C 69.2388976879874 29.5124986412847  69.2875209165948 29.5822206458616  69.3328571428571 29.6540795454545  L 77.6513265306122 42.8653636363636  C 77.6880088194803 42.9245842274123  77.7226883863014 42.9850276586986  77.755306122449 43.0465909090909  C 77.914693877551 43.3534090909091  78.7369387755102 44.9746363636363  79.1533673469388 46.5512727272727  C 79.5645918367347 48.1111363636363  79.6637755102041 49.8350454545454  79.6788775510204 50.1643636363636  L 79 50.2768636363636  L 79 64.2616363636364  C 79.6904081632653 65.0010681818182  79.5545918367347 67.5386590909091  77.454387755102 69.4242613636364  C 75.4654081632653 71.2088181818182  72.7878571428571 71.3469886363636  72.0145918367347 71  L 7.74979591836735 71  Z M 7.06948979591837 44.7274431818182  C 7.06744897959183 44.7336818181819  7.03714285714285 44.7876818181819  7.03714285714286 44.7876818181818  C 6.88408163265306 45.0604431818182  6.4080612244898 45.9627954545455  6.00785714285714 47.2922386363636  C 5.58520408163265 48.6976704545454  5.63540816326531 50.0114659090909  5.64214285714286 50.157  C 5.64589459570904 50.2199719430163  5.64817413245516 50.2830233262803  6 50.3461022727273  L 6 64.3266818181818  L 5.65418367346939 64.3653409090909  C 5.68714285714286 64.6167272727273  5.84020408163265 65.2257613636364  6.10408163265306 65.5005681818182  L 6.1395918367347 65.5384090909091  L 6.18142857142857 65.5691931818182  C 6.55081632653061 65.8420568181818  7.46612244897959 65.9986363636364  7.78581632653061 66  L 72.0187755102041 66  C 72.5517346938775 66.01275  73.4832653061224 65.8346931818182  73.9054081632653 65.4555681818182  C 74.2830612244898 65.1162272727273  74.3676530612245 64.5339886363636  74.3676530612245 64.4408181818182  L 74 64.2790227272727  L 74 50.3586818181818  C 74.3337755102041 49.8156136363637  74.2287755102041 48.7332613636364  74.0114285714286 47.9133409090909  C 73.765306122449 46.9765227272727  73.214693877551 45.8542840909091  73.1065306122449 45.6396136363636  L 73.0767346938775 45.58725  L 64.9134693877551 32.6210113636364  L 64.8879591836735 32.590125  C 64.5785714285714 32.2167272727273  63.8367346938775 31.4186931818182  63.2442857142857 31.0783295454546  C 62.7312244897959 30.7840909090909  61.6863265306122 30.5956022727273  61.1481632653061 30.5452840909091  L 61.0923469387755 31  L 16.9913265306122 31  C 16.5785714285714 30.5463068181818  15.8117346938775 30.6557386363637  15.4574489795918 30.8777727272727  C 14.9584693877551 31.1893977272727  14.3676530612245 31.9015227272727  14.124693877551 32.2340113636364  L 14.1037755102041 32.2628522727273  L 7.14367346938775 44.6038977272728  L 7.0684693877551 44.7306136363637  L 7.06948979591837 44.7274431818182  Z M 39.7528571428571 21.3072954545454  C 38.2853174687265 21.305830185082  37.0959272707476 20.1139655923594  37 18.6430909090909  L 37 3.31609090909091  C 37.0959261298531 1.84561495491474  38.2846955546192 0.65391504826857  39.7518367346939 0.651886363636363  C 41.2194592891391 0.653351073243108  42.4089957413596 1.84513351934057  42 3.31609090909091  L 42 18.6428863636364  C 42.409557956316 20.1136783325359  41.2203139825755 21.3056251334894  39.7528571428571 21.3070909090909  Z M 57.5757142857143 21.20625  C 56.108251546055 21.2042211935955  54.9192372699588 20.0122301286608  54.9175510204082 18.5414318181818  C 54.9181080864339 17.9303773938281  55.127726996959 17.3379952367378  55.5114285714286 16.8631363636364  L 61.5881632653061 9.35161363636364  C 62.0926538299622 8.72594411771003  62.8528919548586 8.36316408583316  63.6555102040816 8.36509090909091  C 64.2697959183674 8.36509090909091  64.8481632653061 8.57086363636363  65.3267346938776 8.95990909090909  C 65.8765230662699 9.40332315433882  66.2259930963445 10.0491459451661  66.2969387755102 10.7528522727273  C 66.3726693320727 11.455729432406  66.1643710534942 12.1597261140662  65.7185714285714 12.7075909090909  L 59.6420408163266 20.2192159090909  C 59.139642291066 20.844718473606  58.3809711382016 21.2076464340862  57.5797959183674 21.2057386363636  L 57.5757142857143 21.2057386363636  Z M 22.2331632653061 21.0025227272727  L 22.2288775510204 21.0025227272727  C 21.4198122313557 21.0047195712787  20.6544183383036 20.6349485956697  20.1521428571429 19.9992272727273  L 14.1784693877551 12.4882159090909  C 13.2648268530584 11.337041053286  13.4534553814231 9.66183477398223  14.6001020408163 8.74370454545454  C 15.0692073304654 8.36587992303649  15.6534055507046 8.16072924876258  16.2552040816326 8.16248863636363  C 17.0702040816326 8.16248863636363  17.8282653061224 8.52842045454545  18.3356122448979 9.16629545454545  L 24.3097959183673 16.6772045454545  C 25.223712817951 17.8279340334885  25.0355796167151 19.5030181087044  23.8892857142857 20.4213068181818  C 23.4184124586319 20.7966449998542  22.8347952782731 21.0014653561342  22.2331632653061 21.0025227272727  Z M 52.3423469387755 50.7105  C 50.8998979591836 56.4070909090909  45.7652040816326 60.3863181818182  39.8542857142857 60.3863181818182  C 33.9318367346939 60.3863181818182  28.7861224489796 56.4066818181818  27.3420408163265 50.7099886363636  L 27.225612244898 50  L 3.61765306122448 50  C 2.15008242552472 50.2334603783347  0.961509998487954 49.0412263145006  0.959489795918364 47.5703181818182  C 0.961794834953321 46.1000423016635  2.15071036308701 44.9088821275667  3.61765306122449 45  L 29.6136734693878 45  C 31.08036506998 44.9275219543056  32.2680528270979 46.1190063012559  32.2704081632653 47.5890340909091  C 32.2704081632653 51.7771022727273  35.6015306122449 55.0571931818182  39.8542857142857 55.0571931818182  C 44.0918367346939 55.0571931818182  47.4114285714286 51.7772045454545  47.4114285714286 47.5891363636364  C 47.4145691735933 46.1188602056143  48.6026510948688 44.9275752726959  50.0695918367347 45  L 75.8248979591837 45  C 77.2913265306122 44.9075454545454  78.4830612244898 46.1009659090909  78.484081632653 47.5697045454545  C 78.4851020408163 49.0384431818182  77.2934693877551 50.2350340909091  75.8279591836734 50  L 52.4588775510204 50  L 52.3423469387755 50.7105  Z " fill-rule="nonzero" fill="#f2f2f2" stroke="none" transform="matrix(1 0 0 1 1536 698 )" />
  </g>
</svg>