<?xml version="1.0" encoding="utf-8"?>
<svg version="1.1" xmlns:xlink="http://www.w3.org/1999/xlink" width="12px" height="8px" xmlns="http://www.w3.org/2000/svg">
  <g transform="matrix(1 0 0 1 -402 -192 )">
    <path d="M 8.90959821428572 6.26736111111111  C 9.8046875 5.70486111111111  10.5491071428571 4.94907407407407  11.1428571428571 4  C 10.4642857142857 2.90740740740741  9.61383928571429 2.09027777777778  8.59151785714286 1.54861111111111  C 8.86383928571429 2.03009259259259  9 2.55092592592593  9 3.11111111111111  C 9 3.96759259259259  8.70647321428572 4.70023148148148  8.11941964285714 5.30902777777778  C 7.53236607142857 5.91782407407407  6.82589285714286 6.22222222222222  6 6.22222222222222  C 5.17410714285714 6.22222222222222  4.46763392857143 5.91782407407407  3.88058035714286 5.30902777777778  C 3.29352678571429 4.70023148148148  3 3.96759259259259  3 3.11111111111111  C 3 2.55092592592593  3.13616071428571 2.03009259259259  3.40848214285714 1.54861111111111  C 2.38616071428571 2.09027777777778  1.53571428571429 2.90740740740741  0.857142857142857 4  C 1.45089285714286 4.94907407407407  2.1953125 5.70486111111111  3.09040178571429 6.26736111111111  C 3.98549107142857 6.82986111111111  4.95535714285714 7.11111111111111  6 7.11111111111111  C 7.04464285714286 7.11111111111111  8.01450892857143 6.82986111111111  8.90959821428572 6.26736111111111  Z M 6.22767857142857 1.56944444444444  C 6.29017857142857 1.50462962962963  6.32142857142857 1.42592592592593  6.32142857142857 1.33333333333333  C 6.32142857142857 1.24074074074074  6.29017857142857 1.16203703703704  6.22767857142857 1.09722222222222  C 6.16517857142857 1.03240740740741  6.08928571428571 0.999999999999999  6 1  C 5.44196428571429 0.999999999999999  4.96316964285714 1.20717592592593  4.56361607142857 1.62152777777778  C 4.1640625 2.03587962962963  3.96428571428571 2.53240740740741  3.96428571428571 3.11111111111111  C 3.96428571428571 3.2037037037037  3.99553571428572 3.28240740740741  4.05803571428571 3.34722222222222  C 4.12053571428571 3.41203703703704  4.19642857142857 3.44444444444444  4.28571428571429 3.44444444444444  C 4.375 3.44444444444444  4.45089285714286 3.41203703703704  4.51339285714286 3.34722222222222  C 4.57589285714286 3.28240740740741  4.60714285714286 3.2037037037037  4.60714285714286 3.11111111111111  C 4.60714285714286 2.71296296296296  4.74330357142857 2.37268518518519  5.015625 2.09027777777778  C 5.28794642857143 1.80787037037037  5.61607142857143 1.66666666666667  6 1.66666666666667  C 6.08928571428571 1.66666666666667  6.16517857142857 1.63425925925926  6.22767857142857 1.56944444444444  Z M 11.8660714285714 3.52083333333333  C 11.9553571428571 3.68287037037037  12 3.84259259259259  12 4  C 12 4.15740740740741  11.9553571428571 4.31712962962963  11.8660714285714 4.47916666666667  C 11.2410714285714 5.54398148148148  10.4006696428571 6.39699074074074  9.34486607142857 7.03819444444444  C 8.2890625 7.67939814814815  7.17410714285714 8  6 8  C 4.82589285714286 8  3.7109375 7.67824074074074  2.65513392857143 7.03472222222222  C 1.59933035714286 6.3912037037037  0.758928571428572 5.53935185185185  0.133928571428571 4.47916666666667  C 0.0446428571428571 4.31712962962963  0 4.15740740740741  0 4  C 0 3.84259259259259  0.0446428571428571 3.68287037037037  0.133928571428571 3.52083333333333  C 0.758928571428572 2.46064814814815  1.59933035714286 1.6087962962963  2.65513392857143 0.965277777777778  C 3.7109375 0.321759259259259  4.82589285714286 0  6 0  C 7.17410714285714 0  8.2890625 0.321759259259259  9.34486607142857 0.965277777777778  C 10.4006696428571 1.6087962962963  11.2410714285714 2.46064814814815  11.8660714285714 3.52083333333333  Z " fill-rule="nonzero" fill="#cccccc" stroke="none" transform="matrix(1 0 0 1 402 192 )" />
  </g>
</svg>