<?xml version="1.0" encoding="utf-8"?>
<svg version="1.1" xmlns:xlink="http://www.w3.org/1999/xlink" width="8px" height="8px" xmlns="http://www.w3.org/2000/svg">
  <g transform="matrix(1 0 0 1 -1097 -566 )">
    <path d="M 1101 567  C 1102.68 567  1104 568.32  1104 570  C 1104 571.68  1102.68 573  1101 573  C 1099.32 573  1098 571.68  1098 570  C 1098 568.32  1099.32 567  1101 567  Z " fill-rule="nonzero" fill="#e9e9e9" stroke="none" />
    <path d="M 1101 567  C 1102.68 567  1104 568.32  1104 570  C 1104 571.68  1102.68 573  1101 573  C 1099.32 573  1098 571.68  1098 570  C 1098 568.32  1099.32 567  1101 567  Z " stroke-width="2" stroke="#e9e9e9" fill="none" />
  </g>
</svg>