<?xml version="1.0" encoding="utf-8"?>
<svg version="1.1" xmlns:xlink="http://www.w3.org/1999/xlink" width="8px" height="8px" xmlns="http://www.w3.org/2000/svg">
  <g transform="matrix(1 0 0 1 -700 -566 )">
    <path d="M 704 567  C 705.68 567  707 568.32  707 570  C 707 571.68  705.68 573  704 573  C 702.32 573  701 571.68  701 570  C 701 568.32  702.32 567  704 567  Z " fill-rule="nonzero" fill="#108ee9" stroke="none" />
    <path d="M 704 567  C 705.68 567  707 568.32  707 570  C 707 571.68  705.68 573  704 573  C 702.32 573  701 571.68  701 570  C 701 568.32  702.32 567  704 567  Z " stroke-width="2" stroke="#108ee9" fill="none" />
  </g>
</svg>