<?xml version="1.0" encoding="utf-8"?>
<svg version="1.1" xmlns:xlink="http://www.w3.org/1999/xlink" width="13px" height="13px" xmlns="http://www.w3.org/2000/svg">
  <g transform="matrix(1 0 0 1 -924 -180 )">
    <path d="M 930.5 180  C 934.14 180  937 182.86  937 186.5  C 937 190.14  934.14 193  930.5 193  C 926.86 193  924 190.14  924 186.5  C 924 182.86  926.86 180  930.5 180  Z " fill-rule="nonzero" fill="#ffffff" stroke="none" />
    <path d="M 930.5 180.5  C 933.86 180.5  936.5 183.14  936.5 186.5  C 936.5 189.86  933.86 192.5  930.5 192.5  C 927.14 192.5  924.5 189.86  924.5 186.5  C 924.5 183.14  927.14 180.5  930.5 180.5  Z " stroke-width="1" stroke="#aaaaaa" fill="none" />
  </g>
</svg>